<mxfile host="app.diagrams.net" modified="2021-10-01T06:33:40.813Z" agent="5.0 (Windows NT 10.0; Win64; x64) AppleWebKit/537.36 (KHTML, like Gecko) Chrome/94.0.4606.61 Safari/537.36" etag="xyjQumLIkCqBz1KHO_fK" version="15.3.4" type="github">
  <diagram id="aPpwis8wVv6BTGHh6oKa" name="Page-1">
    <mxGraphModel dx="2062" dy="1162" grid="1" gridSize="10" guides="1" tooltips="1" connect="1" arrows="1" fold="1" page="1" pageScale="1" pageWidth="1169" pageHeight="827" math="0" shadow="0">
      <root>
        <mxCell id="0" />
        <mxCell id="1" parent="0" />
        <mxCell id="IXanY_waXnLPO531L0gg-1" value="PhoneVata" style="rounded=0;whiteSpace=wrap;html=1;hachureGap=4;pointerEvents=0;" vertex="1" parent="1">
          <mxGeometry x="200" y="120" width="120" height="60" as="geometry" />
        </mxCell>
        <mxCell id="IXanY_waXnLPO531L0gg-2" value="VoiceChangeBreaker" style="rounded=0;whiteSpace=wrap;html=1;hachureGap=4;pointerEvents=0;" vertex="1" parent="1">
          <mxGeometry x="640" y="120" width="120" height="60" as="geometry" />
        </mxCell>
        <mxCell id="IXanY_waXnLPO531L0gg-3" value="&lt;h1&gt;PV vs VCB&lt;/h1&gt;&lt;p&gt;Let&#39;s do battle&lt;/p&gt;&lt;p&gt;Voice changer PhoneVata&lt;/p&gt;&lt;p&gt;Voice change detector&amp;nbsp;&lt;/p&gt;" style="text;html=1;strokeColor=none;fillColor=none;spacing=5;spacingTop=-20;whiteSpace=wrap;overflow=hidden;rounded=0;hachureGap=4;pointerEvents=0;" vertex="1" parent="1">
          <mxGeometry x="10" y="10" width="190" height="120" as="geometry" />
        </mxCell>
      </root>
    </mxGraphModel>
  </diagram>
</mxfile>
